<svg height="656" viewBox="0 -15 492 492" width="656" xmlns="http://www.w3.org/2000/svg" xmlns:xlink="http://www.w3.org/1999/xlink"><linearGradient id="a"><stop offset="0" stop-color="#00efd1"/><stop offset="1" stop-color="#00acea"/></linearGradient><linearGradient id="b" gradientUnits="userSpaceOnUse" x1="371" x2="371" xlink:href="#a" y1="8.713" y2="467.798"/><linearGradient id="c" gradientUnits="userSpaceOnUse" x1="347.51" x2="347.51" xlink:href="#a" y1="8.713" y2="467.798"/><linearGradient id="d" gradientUnits="userSpaceOnUse" x1="409" x2="409" xlink:href="#a" y1="8.713" y2="467.798"/><linearGradient id="e" gradientUnits="userSpaceOnUse" x1="134.5" x2="134.5" xlink:href="#a" y1="8.713" y2="467.798"/><linearGradient id="f" gradientUnits="userSpaceOnUse" x1="93.5" x2="93.5" xlink:href="#a" y1="8.713" y2="467.798"/><linearGradient id="g" gradientUnits="userSpaceOnUse" x1="175.5" x2="175.5" xlink:href="#a" y1="8.713" y2="467.798"/><path d="M484 0H257.809A7.837 7.837 0 00250 8v202.14a7.91 7.91 0 004.25 7.114 8.208 8.208 0 008.242-.48L313.972 180H484a8.23 8.23 0 008-8.266V8a8 8 0 00-8-8zm-8 164H311.398a7.612 7.612 0 00-4.562 1.363L266 194.563V16h210zm0 0" fill="url(#b)"/><path d="M323.934 132.043c2.636 0 4.675-.824 5.277-3.102L333.77 113h27.48l4.559 15.941c.601 2.282 2.64 3.11 5.28 3.11 4.2 0 9.84-2.766 9.84-6.485a5.186 5.186 0 00-.241-1.199l-23.157-75.48c-1.082-3.602-5.52-5.282-10.082-5.282-4.437 0-8.879 1.68-9.96 5.278l-23.157 75.476a6.693 6.693 0 00-.238 1.204c0 3.835 5.636 6.48 9.84 6.48zm23.515-67.883L357.891 101h-20.88zm0 0" fill="url(#c)"/><path d="M409 132.043c3.84 0 8-1.684 8-4.922v-78c0-3.36-4.16-4.8-8-4.8-3.96 0-8 1.44-8 4.8v78c0 3.238 4.04 4.922 8 4.922zm0 0" fill="url(#d)"/><path d="M204.055 355H189v-15h47.262a7.526 7.526 0 007.738-7.7v-46.67c13.445-3.414 22.86-15.52 22.86-29.39 0-13.872-9.415-25.977-22.86-29.391V189.39c0-4.418-3.32-8.391-7.738-8.391H142v-16a8 8 0 00-16 0v16H32.867C28.45 181 25 184.973 25 189.39v37.458c-13.445 3.414-22.863 15.515-22.863 29.39s9.418 25.977 22.863 29.39v46.673a7.637 7.637 0 007.867 7.7H80V355H65.074C29.144 355.059.04 384.18 0 420.11V454a8 8 0 008 8h253.125a7.907 7.907 0 005.61-2.355A7.91 7.91 0 00269 454v-33.89c.023-35.907-29.043-65.044-64.945-65.11zm46.804-98.762A14.548 14.548 0 01244 268.441V244.04a14.55 14.55 0 016.86 12.2zm-232.722 0A14.561 14.561 0 0125 244.035v24.403a14.554 14.554 0 01-6.863-12.2zM41 197h187v127H41zm55 143h77v15H96zm95 106H78v-29h113zm62 0h-46v-37.117c-.129-4.442-3.805-7.957-8.246-7.883H70.375c-4.418 0-8.375 3.465-8.375 7.883V446H16v-25.89c.027-27.098 21.977-49.063 49.074-49.11h138.98c27.071.059 48.977 22.035 48.946 49.11zm0 0" fill="url(#e)"/><path d="M193 279a8 8 0 00-8-8H84a8 8 0 00-8 8v27a8 8 0 008 8h101a8 8 0 008-8zm-16 19H92v-11h85zm0 0" fill="url(#e)"/><path d="M116 222a8 8 0 00-8-8H79a8 8 0 00-8 8v29a8 8 0 008 8h29a8 8 0 008-8zm-29 8h13v12H87zm0 0" fill="url(#f)"/><path d="M198 222a8 8 0 00-8-8h-29a8 8 0 00-8 8v29a8 8 0 008 8h29a8 8 0 008-8zm-29 8h13v12h-13zm0 0" fill="url(#g)"/></svg>