<svg width="124" height="43" fill="none" xmlns="http://www.w3.org/2000/svg"><path d="M6.678 39h-1.05v-5.838H2.1V39H1.05v-6.762h5.628V39zm7.473-.854c-.607.681-1.414 1.022-2.422 1.022-1.008 0-1.82-.34-2.436-1.022-.607-.681-.91-1.526-.91-2.534 0-1.008.303-1.848.91-2.52.616-.681 1.428-1.022 2.436-1.022s1.815.34 2.422 1.022c.616.672.924 1.512.924 2.52s-.308 1.853-.924 2.534zm-4.074-.672c.41.504.96.756 1.652.756.69 0 1.236-.252 1.638-.756.4-.513.602-1.134.602-1.862 0-.728-.201-1.344-.602-1.848-.402-.504-.948-.756-1.638-.756-.691 0-1.242.257-1.652.77-.402.504-.602 1.115-.602 1.834 0 .728.2 1.349.602 1.862zM17.794 39h-1.008v-6.762h1.05v5.166l3.542-5.166h1.036V39h-1.05v-5.264L17.794 39zm9.699.168c-.999 0-1.81-.336-2.436-1.008-.625-.681-.938-1.53-.938-2.548 0-1.017.313-1.862.938-2.534.625-.672 1.437-1.008 2.436-1.008 1.045 0 1.871.392 2.478 1.176l-.7.644c-.43-.588-1.003-.882-1.722-.882-.71 0-1.279.243-1.708.728-.42.485-.63 1.11-.63 1.876 0 .765.21 1.395.63 1.89.43.485.999.728 1.708.728.71 0 1.283-.294 1.722-.882l.7.644c-.607.784-1.433 1.176-2.478 1.176zm9.9-.168h-1.344l-2.436-3.038-1.12 1.106V39h-1.05v-6.762h1.05v3.598l3.556-3.598h1.33l-2.996 3.066L37.393 39zm6.576-.854c-.607.681-1.414 1.022-2.422 1.022-1.008 0-1.82-.34-2.436-1.022-.607-.681-.91-1.526-.91-2.534 0-1.008.303-1.848.91-2.52.616-.681 1.428-1.022 2.436-1.022s1.815.34 2.422 1.022c.616.672.924 1.512.924 2.52s-.308 1.853-.924 2.534zm-4.074-.672c.41.504.961.756 1.652.756.69 0 1.237-.252 1.638-.756.401-.513.602-1.134.602-1.862 0-.728-.2-1.344-.602-1.848-.401-.504-.947-.756-1.638-.756-.69 0-1.241.257-1.652.77-.401.504-.602 1.115-.602 1.834 0 .728.2 1.349.602 1.862zM50.399 39h-3.794v-6.762h3.724c.588 0 1.05.159 1.386.476.345.317.518.737.518 1.26 0 .383-.108.714-.322.994-.206.27-.462.453-.77.546.345.084.634.285.868.602.242.317.364.667.364 1.05 0 .55-.178.994-.532 1.33-.346.336-.826.504-1.442.504zm-.21-.924c.336 0 .602-.093.798-.28.196-.187.294-.439.294-.756 0-.29-.098-.537-.294-.742-.196-.205-.462-.308-.798-.308h-2.534v2.086h2.534zm-.042-3.01c.317 0 .564-.084.742-.252a.928.928 0 00.266-.686c0-.299-.089-.532-.266-.7-.178-.177-.425-.266-.742-.266h-2.492v1.904h2.492zM59.635 39h-1.05v-.77c-.57.625-1.316.938-2.24.938-.626 0-1.176-.2-1.652-.602-.476-.401-.714-.947-.714-1.638 0-.71.233-1.255.7-1.638a2.542 2.542 0 011.666-.588c.961 0 1.708.308 2.24.924v-1.218c0-.448-.159-.798-.476-1.05-.318-.252-.728-.378-1.232-.378-.794 0-1.484.313-2.072.938l-.49-.728c.718-.747 1.619-1.12 2.702-1.12.774 0 1.404.187 1.89.56.485.373.728.947.728 1.722V39zm-2.912-.588c.84 0 1.46-.28 1.862-.84v-1.274c-.402-.56-1.022-.84-1.862-.84-.486 0-.887.14-1.204.42-.308.27-.462.625-.462 1.064 0 .43.154.784.462 1.064.317.27.718.406 1.204.406zm6.025.588h-1.232l1.806-2.66a1.967 1.967 0 01-1.26-.644c-.318-.364-.476-.826-.476-1.386 0-.597.19-1.092.574-1.484.382-.392.905-.588 1.568-.588h3.57V39h-1.05v-2.618h-1.849L62.748 39zm1.092-3.542h2.407v-2.296H63.84c-.365 0-.654.107-.869.322-.205.205-.307.48-.307.826 0 .345.102.625.307.84.206.205.495.308.869.308zm12.147 3.71c-.999 0-1.81-.336-2.436-1.008-.625-.681-.938-1.53-.938-2.548 0-1.017.313-1.862.938-2.534.625-.672 1.437-1.008 2.436-1.008 1.045 0 1.871.392 2.478 1.176l-.7.644c-.43-.588-1.003-.882-1.722-.882-.71 0-1.279.243-1.708.728-.42.485-.63 1.11-.63 1.876 0 .765.21 1.395.63 1.89.43.485.999.728 1.708.728.71 0 1.283-.294 1.722-.882l.7.644c-.607.784-1.433 1.176-2.478 1.176zM80.945 39h-1.008v-6.762h1.05v5.166l3.542-5.166h1.036V39h-1.05v-5.264L80.945 39zm9.698.168c-.998 0-1.81-.336-2.436-1.008-.625-.681-.938-1.53-.938-2.548 0-1.017.313-1.862.938-2.534.626-.672 1.438-1.008 2.436-1.008 1.046 0 1.872.392 2.478 1.176l-.7.644c-.429-.588-1.003-.882-1.722-.882-.709 0-1.278.243-1.708.728-.42.485-.63 1.11-.63 1.876 0 .765.21 1.395.63 1.89.43.485.999.728 1.708.728.71 0 1.284-.294 1.722-.882l.7.644c-.606.784-1.432 1.176-2.478 1.176zM96.875 39h-1.05v-5.838h-1.96v-.924h4.984v.924h-1.974V39zm6.403.168c-1.008 0-1.834-.327-2.478-.98-.644-.663-.966-1.521-.966-2.576 0-.99.317-1.825.952-2.506.634-.69 1.428-1.036 2.38-1.036.998 0 1.787.345 2.366 1.036.588.681.882 1.545.882 2.59v.266h-5.474c.046.663.289 1.218.728 1.666.438.448 1.008.672 1.708.672.84 0 1.535-.285 2.086-.854l.504.686c-.691.69-1.587 1.036-2.688 1.036zm2.1-3.976a2.427 2.427 0 00-.588-1.554c-.383-.467-.929-.7-1.638-.7-.672 0-1.204.229-1.596.686-.383.457-.588.98-.616 1.568h4.438zM115.016 39h-1.05v-5.306L111.768 39h-.392l-2.212-5.306V39h-1.05v-6.762h1.386l2.072 5.012 2.044-5.012h1.4V39zm7.373 0h-1.05v-.77c-.57.625-1.316.938-2.24.938-.626 0-1.176-.2-1.652-.602-.476-.401-.714-.947-.714-1.638 0-.71.233-1.255.7-1.638a2.541 2.541 0 011.666-.588c.961 0 1.708.308 2.24.924v-1.218c0-.448-.159-.798-.476-1.05-.318-.252-.728-.378-1.232-.378-.794 0-1.484.313-2.072.938l-.49-.728c.718-.747 1.619-1.12 2.702-1.12.774 0 1.404.187 1.89.56.485.373.728.947.728 1.722V39zm-2.912-.588c.84 0 1.46-.28 1.862-.84v-1.274c-.402-.56-1.022-.84-1.862-.84-.486 0-.887.14-1.204.42-.308.27-.462.625-.462 1.064 0 .43.154.784.462 1.064.317.27.718.406 1.204.406zM32.512 22h-3.888l-.984-2.712h-6.864L19.768 22H15.88l6.192-16.008h4.272L32.512 22zm-5.808-5.712L24.208 9.4l-2.496 6.888h4.992zM41.478 22h-7.56V10.408h7.344c1.12 0 1.992.288 2.616.864.624.576.936 1.28.936 2.112 0 .672-.184 1.24-.552 1.704-.368.464-.84.776-1.416.936.64.144 1.168.48 1.584 1.008.416.528.624 1.136.624 1.824 0 .912-.32 1.664-.96 2.256-.624.592-1.496.888-2.616.888zm-.744-2.496c.368 0 .656-.096.864-.288.224-.192.336-.456.336-.792 0-.304-.112-.56-.336-.768-.208-.208-.496-.312-.864-.312h-3.768v2.16h3.768zm-.096-4.656c.32 0 .576-.088.768-.264a.913.913 0 00.312-.696.9.9 0 00-.288-.696c-.192-.192-.456-.288-.792-.288h-3.672v1.944h3.672zM53.188 22h-3.071v-8.928h-3.24v-2.664h9.552v2.664h-3.24V22zm14.992-1.464c-1.12 1.168-2.608 1.752-4.464 1.752-1.856 0-3.344-.584-4.464-1.752-1.104-1.184-1.656-2.632-1.656-4.344 0-1.712.552-3.152 1.656-4.32 1.12-1.168 2.608-1.752 4.464-1.752 1.856 0 3.344.584 4.464 1.752 1.12 1.168 1.68 2.608 1.68 4.32 0 1.712-.56 3.16-1.68 4.344zm-6.624-1.92c.528.64 1.248.96 2.16.96.912 0 1.632-.32 2.16-.96.544-.656.816-1.464.816-2.424 0-.944-.272-1.736-.816-2.376-.528-.656-1.248-.984-2.16-.984-.912 0-1.632.328-2.16.984-.528.64-.792 1.432-.792 2.376 0 .96.264 1.768.792 2.424zm13.781-.024c.528.656 1.248.984 2.16.984.912 0 1.632-.328 2.16-.984.544-.656.816-1.472.816-2.448 0-.912-.272-1.688-.816-2.328-.528-.656-1.248-.984-2.16-.984-.912 0-1.632.32-2.16.96-.528.64-.792 1.424-.792 2.352 0 .976.264 1.792.792 2.448zm2.16 3.696c-1.888 0-3.384-.616-4.488-1.848-1.088-1.248-1.632-2.84-1.632-4.776 0-2.768.496-4.84 1.488-6.216.992-1.376 2.504-2.2 4.536-2.472 1.744-.256 2.616-.584 2.616-.984h3.168c0 1.68-1.608 2.72-4.824 3.12-2.416.32-3.808 1.288-4.176 2.904.96-1.264 2.28-1.896 3.96-1.896 1.616 0 2.928.592 3.936 1.776 1.024 1.184 1.536 2.608 1.536 4.272 0 1.712-.56 3.16-1.68 4.344-1.104 1.184-2.584 1.776-4.44 1.776zm18.316-1.752c-1.12 1.168-2.608 1.752-4.464 1.752-1.856 0-3.344-.584-4.464-1.752-1.104-1.184-1.656-2.632-1.656-4.344 0-1.712.552-3.152 1.656-4.32 1.12-1.168 2.608-1.752 4.464-1.752 1.856 0 3.344.584 4.464 1.752 1.12 1.168 1.68 2.608 1.68 4.32 0 1.712-.56 3.16-1.68 4.344zm-6.624-1.92c.528.64 1.248.96 2.16.96.912 0 1.632-.32 2.16-.96.544-.656.816-1.464.816-2.424 0-.944-.272-1.736-.816-2.376-.528-.656-1.248-.984-2.16-.984-.912 0-1.632.328-2.16.984-.528.64-.792 1.432-.792 2.376 0 .96.264 1.768.792 2.424zM104.962 22h-3.072v-8.928h-3.24v-2.664h9.552v2.664h-3.24V22z" fill="#fff"/></svg>