<svg width="100" height="50" fill="none" xmlns="http://www.w3.org/2000/svg"><path d="M50.56 22.342c.88 1.066 1.2 2.317.964 3.772h-6.732c.322 1.066 1.218 1.76 2.386 1.76.997 0 1.708-.406 2.164-1.218l1.878.846c-.795 1.42-2.283 2.334-4.11 2.334-1.336 0-2.436-.44-3.332-1.303-.896-.863-1.336-1.945-1.336-3.23 0-1.286.44-2.369 1.319-3.232.88-.862 1.962-1.302 3.264-1.302 1.471 0 2.639.524 3.535 1.573zm-5.734 2.03h4.414c-.321-.998-1.15-1.64-2.215-1.64-1.015 0-1.878.642-2.199 1.64zm15.982-2.302c.796.864 1.201 1.946 1.201 3.232 0 1.286-.405 2.368-1.2 3.23-.795.864-1.793 1.303-2.994 1.303-1.116 0-2.047-.405-2.774-1.2v4.415h-2.283V20.938h2.283v1.031c.727-.794 1.658-1.2 2.774-1.2 1.2 0 2.199.44 2.993 1.302zm-3.467 5.685a2.14 2.14 0 001.641-.71c.44-.457.66-1.05.66-1.743 0-.694-.22-1.285-.66-1.742a2.184 2.184 0 00-1.64-.694c-.66 0-1.202.237-1.641.694-.44.474-.66 1.049-.66 1.742 0 .694.22 1.286.66 1.742.44.474.98.71 1.64.71zm8.102-1.421l4.16-5.396h2.216v8.728h-2.284V24.27l-4.16 5.396H63.16v-8.728h2.283v5.396zm10.485 3.332h-2.284v-8.729H82v8.73h-2.284V22.95h-3.788v6.715zM22.272 14l5.261 6.433-2.637 3.22L17 14h5.272zm9.745 4.166c-.002.006-1.85 2.263-1.85 2.263L24.908 14h4.548c.46 0 .894.207 1.185.562l1.369 1.674c.454.554.47 1.36.007 1.93zm6.589 8.073l-7.534 9.207a1.532 1.532 0 01-1.184.561H25.34l11.424-13.96 1.843 2.253a1.53 1.53 0 010 1.939z" fill="#8F9194"/><path d="M34.648 21.4L22.695 36.007H17.42l12.747-15.578s1.848-2.257 1.85-2.263a1.526 1.526 0 00-.007-1.93l2.639 3.225a1.53 1.53 0 010 1.94z" fill="#8F9194"/></svg>